HIERARCHY
ROOT root
{
	OFFSET 0.000000 0.000000 0.000000
	CHANNELS 6 Xposition Yposition Zposition Zrotation Yrotation Xrotation
	JOINT lhip
	{
		OFFSET 0.058581 -0.082280 -0.017664
		CHANNELS 3 Zrotation Yrotation Xrotation
		JOINT lknee
		{
			OFFSET 0.043451 -0.386469 0.008037
			CHANNELS 3 Zrotation Yrotation Xrotation
			JOINT lankle
			{
				OFFSET -0.014790 -0.426874 -0.037428
				CHANNELS 3 Zrotation Yrotation Xrotation
				JOINT ltoe
				{
					OFFSET 0.041054 -0.060286 0.122042
					CHANNELS 3 Zrotation Yrotation Xrotation
					End Site
					{
						OFFSET 0.000000 0.000000 0.000000
					}
				}
			}
		}
	}
	JOINT rhip
	{
		OFFSET -0.060310 -0.090513 -0.013543
		CHANNELS 3 Zrotation Yrotation Xrotation
		JOINT rknee
		{
			OFFSET -0.043257 -0.383688 -0.004843
			CHANNELS 3 Zrotation Yrotation Xrotation
			JOINT rankle
			{
				OFFSET 0.019056 -0.420046 -0.034562
				CHANNELS 3 Zrotation Yrotation Xrotation
				JOINT rtoe
				{
					OFFSET -0.034840 -0.062106 0.130323
					CHANNELS 3 Zrotation Yrotation Xrotation
					End Site
					{
						OFFSET 0.000000 0.000000 0.000000
					}
				}
			}
		}
	}
	JOINT lowerback
	{
		OFFSET 0.004439 0.124404 -0.038385
		CHANNELS 3 Zrotation Yrotation Xrotation
		JOINT upperback
		{
			OFFSET 0.004488 0.137956 0.026820
			CHANNELS 3 Zrotation Yrotation Xrotation
			JOINT chest
			{
				OFFSET -0.002265 0.056032 0.002855
				CHANNELS 3 Zrotation Yrotation Xrotation
				JOINT lowerneck
				{
					OFFSET -0.013390 0.211636 -0.033468
					CHANNELS 3 Zrotation Yrotation Xrotation
					JOINT upperneck
					{
						OFFSET 0.010113 0.088937 0.050410
						CHANNELS 3 Zrotation Yrotation Xrotation
						End Site
						{
							OFFSET 0.000000 0.000000 0.000000
						}
					}
				}
				JOINT lclavicle
				{
					OFFSET 0.071702 0.114000 -0.018898
					CHANNELS 3 Zrotation Yrotation Xrotation
					JOINT lshoulder
					{
						OFFSET 0.122921 0.045205 -0.019046
						CHANNELS 3 Zrotation Yrotation Xrotation
						JOINT lelbow
						{
							OFFSET 0.255332 -0.015649 -0.022946
							CHANNELS 3 Zrotation Yrotation Xrotation
							JOINT lwrist
							{
								OFFSET 0.265709 0.012698 -0.007375
								CHANNELS 3 Zrotation Yrotation Xrotation
								End Site
								{
									OFFSET 0.000000 0.000000 0.000000
								}
							}
						}
					}
				}
				JOINT rclavicle
				{
					OFFSET -0.082954 0.112472 -0.023707
					CHANNELS 3 Zrotation Yrotation Xrotation
					JOINT rshoulder
					{
						OFFSET -0.113228 0.046853 -0.008472
						CHANNELS 3 Zrotation Yrotation Xrotation
						JOINT relbow
						{
							OFFSET -0.260127 -0.014369 -0.031269
							CHANNELS 3 Zrotation Yrotation Xrotation
							JOINT rwrist
							{
								OFFSET -0.269108 0.006794 -0.006027
								CHANNELS 3 Zrotation Yrotation Xrotation
								End Site
								{
									OFFSET 0.000000 0.000000 0.000000
								}
							}
						}
					}
				}
			}
		}
	}
}
MOTION
Frames: 10
Frame Time: 0.033333
0.488504 2.248644 0.996414 62.966243 -1.979158 84.850178 8.485434 -5.507020 -28.779190 -2.179730 9.793198 18.742928 -6.881725 12.089111 -0.154425 0.000000 -0.000000 0.000000 9.642084 2.817451 1.205870 6.041388 -0.947817 14.443992 7.556657 2.272865 -5.416632 0.000000 -0.000000 0.000000 -2.527120 5.870239 18.305655 1.300394 -1.787092 -3.235494 0.455613 2.136375 -1.454503 2.654668 -1.380187 7.112760 7.658110 -8.863921 5.607620 -22.649437 1.921813 0.422912 -55.046590 -5.977340 5.613244 20.234702 -26.442562 -8.202831 -5.324122 -4.638552 -4.315223 21.446321 4.164580 3.174846 48.025224 9.845022 11.889479 -6.158486 32.073117 14.424145 0.164453 2.281183 -4.140920 
0.509750 2.240364 0.994966 59.015275 -1.850548 85.084968 8.204003 -7.129164 -29.288615 -3.531313 4.313457 10.368022 -9.036421 8.984744 -0.058683 0.000000 -0.000000 0.000000 9.405701 2.953254 2.949932 6.101217 0.880328 14.690783 9.282878 4.174677 -4.619094 0.000000 -0.000000 0.000000 -1.697547 6.508724 18.913067 1.119875 -1.789962 -3.573693 0.492397 2.633741 -1.595984 2.194139 -0.521601 7.232966 7.398139 -9.572169 3.965120 -22.769368 2.000649 -0.295260 -54.444677 -4.211621 6.140564 19.954638 -25.197434 -8.449845 -3.858931 -4.514903 -3.979184 21.688478 4.723768 2.529032 47.573077 9.911846 12.092816 -5.444592 31.540468 14.718711 -1.040382 2.410331 -3.757922 
0.532594 2.230231 0.993004 55.261387 -1.899328 85.251821 7.204878 -7.251671 -30.433717 -4.713748 -2.241675 7.688358 -12.741469 5.368214 -0.839108 0.000000 -0.000000 0.000000 8.481116 1.772602 4.308582 6.242898 2.709953 16.178898 12.005097 7.272031 -3.666770 0.000000 -0.000000 0.000000 -1.180502 7.265270 19.348255 1.146573 -1.892411 -4.186652 0.412242 3.044334 -1.365497 2.008599 0.465187 6.936556 7.210007 -10.831815 2.842275 -22.556627 2.098153 -0.796066 -54.269122 -2.556989 6.145244 19.812901 -23.629188 -7.856970 -4.044338 -4.357175 -4.055986 22.044027 4.910116 2.103905 47.250259 9.755177 11.258619 -4.602548 31.379781 15.825914 -0.571113 2.462522 -3.684832 
0.555687 2.217134 0.991028 51.781831 -2.082810 85.154077 6.279819 -8.438487 -30.998993 -5.647695 -6.640216 8.427048 -15.461189 2.640306 -1.418603 0.000000 -0.000000 0.000000 8.070577 1.690166 6.263161 6.023373 4.917088 17.129669 12.730433 7.249035 -3.842821 0.000000 -0.000000 0.000000 -1.576761 7.821228 19.247611 1.611023 -1.853871 -3.824580 0.408785 3.393857 -1.203680 2.411673 1.087361 5.706987 6.747272 -12.058214 2.636418 -21.919929 2.587058 -0.933144 -54.662365 -1.926396 5.752533 19.990449 -21.462256 -6.685080 -5.008006 -4.603205 -3.959111 22.563172 4.998151 2.229735 47.246807 9.759024 10.470066 -4.865334 31.164548 15.761003 -0.171469 2.308880 -3.859032 
0.579527 2.203489 0.989082 48.692242 -1.908281 85.255783 4.948021 -8.220256 -31.150522 -7.263453 -11.067468 11.984788 -16.131943 0.168521 -1.370109 0.000000 -0.000000 0.000000 7.896896 1.707010 8.105110 6.102101 6.962627 17.984149 12.411358 6.455853 -4.033389 0.000000 -0.000000 0.000000 -1.062925 8.094054 18.917491 1.684286 -2.108697 -3.531116 0.193119 3.531189 -0.956780 2.566254 0.851845 4.116660 6.581296 -12.668551 2.903566 -21.739330 2.778836 -1.134943 -54.537124 -0.703597 5.336976 19.680430 -19.852976 -5.460019 -3.061841 -4.455659 -4.492120 22.363987 5.140776 2.248426 47.943497 9.388273 10.098588 -4.922851 30.668463 16.028399 -0.806582 2.211883 -4.746895 
0.602878 2.186318 0.989823 45.215296 -2.339555 85.609926 6.128472 -14.820954 -30.793099 -7.999729 -10.099859 15.188736 -18.358271 -1.981160 -0.041557 0.000000 -0.000000 0.000000 7.485384 4.043195 9.964085 6.014217 7.127350 18.652547 11.891525 5.818492 -4.571862 0.000000 -0.000000 0.000000 -2.317374 8.812220 17.072137 2.551611 -1.910439 -1.377130 -0.092259 3.428503 -1.626565 3.504951 1.475941 3.791963 6.103756 -12.864736 2.275580 -21.611731 3.295872 -0.964627 -54.425846 -0.412527 6.157609 20.507071 -17.366887 -8.508491 -5.431670 -4.456148 -2.318178 23.660786 4.838093 1.968495 47.317727 8.441122 11.291933 -6.063588 30.695855 13.721915 1.602573 2.065597 -4.341036 
0.625588 2.170329 0.987793 41.785048 -2.357735 86.812253 6.138507 -16.056154 -31.747433 -7.272586 -9.457671 18.064749 -19.702519 -0.798230 3.932647 0.000000 -0.000000 0.000000 6.506294 4.724901 9.479458 6.115743 7.006594 21.018885 13.367888 7.350530 -2.453194 0.000000 -0.000000 0.000000 -2.661584 9.099124 15.586479 2.740127 -1.783644 -1.430362 -0.082926 3.299523 -1.166029 4.051082 1.513216 2.614431 4.855975 -12.530689 2.754386 -22.056695 3.921369 -1.616960 -53.822061 0.028258 6.326617 20.316337 -14.834066 -9.335542 -6.373903 -4.477221 -1.049851 23.935893 3.830398 1.392544 47.575756 8.106996 12.551742 -6.494663 29.762576 13.411846 2.179513 2.318959 -4.950855 
0.648445 2.151872 0.987482 38.774541 -2.500932 87.811040 6.444105 -15.208961 -32.172945 -6.925719 -6.579372 20.390658 -17.183270 3.111232 5.128639 0.000000 -0.000000 0.000000 5.426777 5.562635 8.492337 7.089640 7.146754 24.655236 13.625990 6.539353 -0.681087 0.000000 -0.000000 0.000000 -3.453467 9.130523 14.291414 2.989485 -1.622842 -2.001383 0.033648 3.022638 -0.437726 4.603331 0.958746 1.597543 4.292700 -11.677320 3.624214 -22.301748 4.342865 -1.596074 -53.443233 -0.075168 5.927479 19.887681 -12.905178 -9.142673 -5.439850 -4.163684 -0.384954 23.941698 2.598804 0.951922 48.267610 7.968744 13.111171 -6.831968 27.741812 12.834507 3.075123 1.459106 -4.829248 
0.670416 2.132017 0.988417 36.382816 -2.556302 88.375727 5.392053 -11.192271 -30.211405 -8.734900 -7.440863 20.851425 -21.657161 1.252037 5.633056 0.000000 -0.000000 0.000000 4.508250 5.194060 6.538247 7.221184 6.165920 30.078073 14.528583 5.754241 1.519120 0.000000 -0.000000 0.000000 -4.174803 8.790178 13.478349 3.194058 -1.875553 -2.155354 0.139456 2.785905 -0.320458 5.494322 1.296679 2.264964 5.017098 -12.351954 3.040505 -22.551502 4.195692 -1.347627 -52.680291 -0.222558 5.381661 18.754962 -11.661435 -8.089394 -1.502741 -4.419581 -0.638967 24.319827 1.544593 1.349029 48.490429 7.695609 12.156969 -5.950754 26.187217 12.763261 -7.716303 0.633779 -3.852112 
0.689590 2.112276 0.992705 34.382116 -2.832715 88.733665 4.749365 -9.103791 -27.156331 -9.122144 -6.676196 19.218928 -23.749062 0.122222 5.984840 0.000000 -0.000000 0.000000 2.487332 4.721348 3.161931 7.796796 3.480696 37.353497 14.918099 5.262096 5.726722 0.000000 -0.000000 0.000000 -5.389617 7.956046 12.774319 3.415403 -1.866476 -1.620471 0.371621 2.356513 -0.664025 6.045041 0.446294 3.308957 5.984838 -11.467498 2.307403 -22.716155 3.174380 -0.725445 -52.222527 -0.811399 4.524048 19.288763 -10.277193 -9.929345 -1.037608 -4.669991 2.267171 24.376637 1.242625 1.145817 49.026794 6.396374 11.559256 -6.761454 25.148257 11.402348 -3.699888 0.961612 -2.382257 
